<svg xmlns="http://www.w3.org/2000/svg"><symbol id="icon-sports-car" viewBox="0 0 24 24"><g class="nc-icon-wrapper"><path d="M23 14.75a.25.25 0 01-.25-.25v-3a1.247 1.247 0 00-.625-1.079.251.251 0 01-.125-.216V8.468a.25.25 0 01.187-.242l1-.258a1 1 0 00-.5-1.936l-2.905.75a1 1 0 00.024 1.938.25.25 0 01.194.243v.645a.25.25 0 01-.393.205l-4.929-3.429c-.059-.041-.178-.134-.678-.134H9a2.988 2.988 0 00-2.684 1.662l-1.1 2.2a.249.249 0 01-.223.138H2.26A2.253 2.253 0 00.01 12.5v3a1.252 1.252 0 001.25 1.25h.546a.25.25 0 00.246-.293A2.651 2.651 0 012.01 16a3 3 0 016 0 2.651 2.651 0 01-.042.457.25.25 0 00.247.293h5.83a.25.25 0 00.247-.293A2.651 2.651 0 0114.25 16a3 3 0 016 0 2.651 2.651 0 01-.042.457.248.248 0 00.055.2.253.253 0 00.192.089H23a1 1 0 000-2zM12.432 8.588l-.376 1a1.01 1.01 0 01-.946.659H7.786a.25.25 0 01-.224-.362L8.1 8.808A1 1 0 019 8.25h3.2a.248.248 0 01.205.108.251.251 0 01.027.23z"/><circle cx="5.01" cy="16" r="2"/><circle cx="17.25" cy="16" r="2"/></g></symbol><symbol id="icon-taxi-van" viewBox="0 0 24 24"><g class="nc-icon-wrapper"><path d="M23.39 10.625h-9a.249.249 0 01-.25-.25v-3.75a.25.25 0 01.25-.25h8.25a1 1 0 000-2H11.754a3 3 0 00-2.575 1.462L6.5 10.671a.248.248 0 01-.178.125l-4.333.723A1.506 1.506 0 00.765 12.7l-.125.622a.25.25 0 00.246.3h1.5a.5.5 0 110 1h-1.8a.251.251 0 00-.246.2l-.2 1a1.5 1.5 0 001.47 1.803h.54a.251.251 0 00.249-.231 3 3 0 015.982 0 .25.25 0 00.25.231h7.019a.251.251 0 00.249-.231 3 3 0 015.982 0 .25.25 0 00.25.231h1.259a.5.5 0 00.5-.5v-6a.5.5 0 00-.5-.5zm-11.25-.245a.25.25 0 01-.25.25H9.232a.25.25 0 01-.219-.371l1.887-3.41a.993.993 0 01.85-.474h.136a.25.25 0 01.25.25z"/><circle cx="5.39" cy="17.625" r="2"/><circle cx="18.89" cy="17.625" r="2"/><path d="M15.39 8.375v.5a.75.75 0 001.5 0v-.5a.75.75 0 00-1.5 0zm5 0v.5a.75.75 0 001.5 0v-.5a.75.75 0 00-1.5 0z"/></g></symbol><symbol id="icon-truck-rv" viewBox="0 0 24 24"><g class="nc-icon-wrapper"><path d="M5.251 18.127A2.248 2.248 0 107.5 20.375a2.249 2.249 0 00-2.249-2.248z"/><path d="M22.5 1.377H5.08a1.491 1.491 0 00-1.343.829L1.194 6.41a1.482 1.482 0 00.054 1.527 1.514 1.514 0 001.262.69h1.542a.253.253 0 01.211.115.25.25 0 01.016.24l-2.385 5.169a.281.281 0 01-.05.072L.4 15.671a1.22 1.22 0 00-.4.906v3.8a1.251 1.251 0 001.25 1.25h.65a.249.249 0 00.2-.1.252.252 0 00.039-.221A3.214 3.214 0 012 20.375a3.248 3.248 0 116.36.93.249.249 0 00.239.322h6.551a.249.249 0 00.2-.1.252.252 0 00.039-.221 3.214 3.214 0 01-.137-.93 3.248 3.248 0 116.36.93.249.249 0 00.239.322h.649a1.5 1.5 0 001.5-1.5V2.877a1.5 1.5 0 00-1.5-1.5zM4.288 6.42a.5.5 0 01-.069-.451l.667-2a.5.5 0 01.474-.342h5.14a.5.5 0 01.5.5v2a.5.5 0 01-.5.5H4.694a.5.5 0 01-.406-.207zm7.012 6.015a.692.692 0 01-.692.692H5.5a.5.5 0 01-.454-.709l1.615-3.5a.5.5 0 01.454-.291H10.6a.692.692 0 01.692.692zm10.45-6.308a.5.5 0 01-.5.5H14a.5.5 0 01-.5-.5v-2a.5.5 0 01.5-.5h7.25a.5.5 0 01.5.5z"/><path d="M18.5 18.127a2.248 2.248 0 102.248 2.248 2.249 2.249 0 00-2.248-2.248z"/></g></symbol></svg>
