<svg xmlns="http://www.w3.org/2000/svg" width="24" height="24" viewBox="0 0 24 24"><g class="nc-icon-wrapper" fill="#000000"><path d="M23 14.75a.25.25 0 0 1-.25-.25v-3a1.247 1.247 0 0 0-.625-1.079.251.251 0 0 1-.125-.216V8.468a.25.25 0 0 1 .187-.242l1-.258a1 1 0 0 0-.5-1.936l-2.905.75a1 1 0 0 0 .024 1.938.25.25 0 0 1 .194.243v.645a.25.25 0 0 1-.393.205l-4.929-3.429c-.059-.041-.178-.134-.678-.134H9a2.988 2.988 0 0 0-2.684 1.662l-1.1 2.2a.249.249 0 0 1-.223.138H2.26A2.253 2.253 0 0 0 .01 12.5v3a1.252 1.252 0 0 0 1.25 1.25h.546a.25.25 0 0 0 .246-.293A2.651 2.651 0 0 1 2.01 16a3 3 0 0 1 6 0 2.651 2.651 0 0 1-.042.457.25.25 0 0 0 .247.293h5.83a.25.25 0 0 0 .247-.293A2.651 2.651 0 0 1 14.25 16a3 3 0 0 1 6 0 2.651 2.651 0 0 1-.042.457.248.248 0 0 0 .055.2.253.253 0 0 0 .192.089H23a1 1 0 0 0 0-2zM12.432 8.588l-.376 1a1.01 1.01 0 0 1-.946.659H7.786a.25.25 0 0 1-.224-.362L8.1 8.808A1 1 0 0 1 9 8.25h3.2a.248.248 0 0 1 .205.108.251.251 0 0 1 .027.23z"/><circle cx="5.01" cy="16" r="2"/><circle cx="17.25" cy="16" r="2"/></g></svg>
